<?xml version="1.0" standalone="no"?><!DOCTYPE svg PUBLIC "-//W3C//DTD SVG 1.1//EN" "http://www.w3.org/Graphics/SVG/1.1/DTD/svg11.dtd"><svg t="1666712395083" class="icon" viewBox="0 0 1024 1024" version="1.1" xmlns="http://www.w3.org/2000/svg" p-id="1240" xmlns:xlink="http://www.w3.org/1999/xlink" width="200" height="200"><path d="M566.8864 236.288C464.4352 178.944 480.768 112.64 412.5184 112.64H293.376c-106.7008 0-193.1776 86.4768-193.1776 193.1776v236.3392h466.688V236.288z" fill="#7A7AF9" p-id="1241" data-spm-anchor-id="a313x.7781069.0.i4" class="selected"></path><path d="M737.4848 911.2064H302.1312c-111.5648 0-201.984-90.4192-201.984-201.984V438.272c0-111.5648 90.4192-201.984 201.984-201.984h435.3024c111.5648 0 201.984 90.4192 201.984 201.984v270.9504c0 111.5136-90.4192 201.984-201.9328 201.984z" fill="#CCDAFF" p-id="1242" data-spm-anchor-id="a313x.7781069.0.i2" class="selected"></path><path d="M713.6768 674.1504H321.3824c-26.5216 0-47.9744-21.504-47.9744-47.9744 0-26.5216 21.504-47.9744 47.9744-47.9744h392.2944c26.5216 0 47.9744 21.504 47.9744 47.9744 0 26.4704-21.504 47.9744-47.9744 47.9744z" fill="#7A7AF9" p-id="1243" data-spm-anchor-id="a313x.7781069.0.i3" class="selected"></path></svg>